<?xml version="1.0" encoding="UTF-8"?>
<!DOCTYPE svg PUBLIC "-//W3C//DTD SVG 1.1//EN" "http://www.w3.org/Graphics/SVG/1.1/DTD/svg11.dtd">
<!-- Creator: CorelDRAW X8 -->
<svg xmlns="http://www.w3.org/2000/svg" xml:space="preserve" width="60mm" height="60mm" version="1.1" style="shape-rendering:geometricPrecision; text-rendering:geometricPrecision; image-rendering:optimizeQuality; fill-rule:evenodd; clip-rule:evenodd"
viewBox="0 0 6000 6000"
 xmlns:xlink="http://www.w3.org/1999/xlink">
 <defs>
  <style type="text/css">
   <![CDATA[
    .fil0 {fill:#9D9E9E}
   ]]>
  </style>
 </defs>
 <g id="Camada_x0020_1">
  <metadata id="CorelCorpID_0Corel-Layer"/>
  <path class="fil0" d="M1808 4633c475,-3 951,0 1427,-1 499,0 825,11 1246,-181 606,-277 1097,-807 1277,-1576 98,-421 64,-847 -63,-1241 -116,-356 -298,-631 -547,-885 -121,-123 -243,-225 -394,-316 -147,-89 -305,-172 -491,-230 -431,-135 -863,-101 -1333,-101 -474,1 -948,0 -1422,0 -219,0 -501,-15 -712,4 -213,19 -375,141 -463,256 -135,176 -139,315 -140,573 0,238 0,475 0,712l1 2853c-1,420 -79,874 250,1182 473,441 1185,175 1333,-362 51,-186 32,-481 31,-687zm-276 -2047c1,0 4,-1 5,2l229 105 1 -163 -235 56zm2678 108l174 -76c27,-11 45,-15 65,-35l-240 -54 1 165zm-2424 -1372c16,32 45,52 71,77l213 219c43,44 99,107 144,144 41,33 122,107 141,147 -40,55 -185,171 -263,215l-239 -239c-28,-29 -50,-61 -86,-78l0 472c-58,33 -268,81 -346,89l0 -688 -265 705c30,18 49,40 61,78 391,-21 774,-165 1063,-392 130,-102 233,-229 338,-381 63,-92 205,-367 239,-492 -10,-15 -39,-53 -54,-69l-1017 193zm1336 -136c12,99 183,415 233,493 185,293 473,535 802,654 159,57 422,121 605,131 11,-37 33,-61 58,-78l-261 -712 -2 694c-110,-11 -249,-53 -347,-88l0 -476c-68,33 -248,271 -323,320 -56,-23 -239,-180 -266,-215 77,-97 509,-508 569,-584l-1024 -201c-11,40 -16,43 -44,62zm-562 2027c36,73 47,139 1,212 26,43 44,50 77,88 43,49 225,257 258,278 92,-46 115,-15 195,-2l203 -220c15,-17 23,-30 38,-47 30,-35 35,-26 82,-89 -36,-129 -43,-101 5,-227l-200 -239c-20,-25 -48,-64 -66,-83 -34,18 -57,50 -83,79 -27,28 -53,52 -81,78l-160 -156 -204 243c-20,26 -50,59 -65,85zm-1300 -652c46,32 222,79 293,108 453,182 667,444 734,479 89,-35 108,-30 195,-4 30,-37 256,-304 271,-337l-181 -193c-22,-22 -44,-37 -66,-60 -83,-88 -158,-172 -245,-255 6,-9 2,-4 12,-14l53 -40c25,-18 41,-32 67,-52 29,-22 34,-26 63,-56 22,-23 41,-47 68,-60 41,33 75,78 113,117 42,43 72,73 121,116 38,33 77,77 113,115 31,32 87,98 118,119 69,-54 429,-446 478,-468 27,40 80,85 119,117 24,20 42,33 66,52 31,24 47,27 64,54 -121,114 -245,256 -365,378 -45,45 -97,79 -128,130l203 249c22,26 45,61 71,85 128,-31 94,-20 202,10 26,-30 63,-63 99,-95 174,-154 402,-295 623,-385 58,-23 263,-87 296,-110 -484,-69 -777,-163 -1084,-415 -286,-236 -474,-547 -603,-904l-81 2c-74,180 -148,351 -243,500 -109,170 -211,271 -356,398 -283,249 -625,351 -1090,419zm-186 180c-248,18 -298,-236 -173,-347 49,-44 86,-49 166,-53l311 -847c-34,-39 -74,-69 -79,-153 -10,-153 124,-241 243,-211 70,18 106,54 133,109 110,-14 1079,-199 1112,-218 24,-53 22,-84 63,-124 73,-71 198,-71 274,-3 36,32 41,81 69,127 40,22 991,201 1109,218 102,-198 386,-121 379,94 -3,88 -43,115 -80,161l312 847c320,-5 296,429 -10,399 -25,54 -343,767 -347,804 -14,114 37,112 -51,177 -70,52 -199,142 -293,166l-2 -923c66,-44 255,-138 346,-166l0 473 254 -573 -36 -41c-171,36 -419,148 -556,226 -256,147 -416,313 -453,334 9,35 21,59 23,97 2,35 -18,84 -14,100 4,19 253,236 303,286 19,20 42,36 63,54l1 134c-70,-43 -391,-369 -452,-396 -63,54 -136,29 -202,10l-244 269c-21,21 -64,73 -80,94 68,141 -9,297 -165,305 -129,7 -268,-116 -183,-305 -72,-88 -176,-190 -242,-269 -28,-34 -58,-58 -81,-96 -108,30 -107,38 -214,-4l-326 288c-23,23 -27,31 -51,51 -12,9 -17,13 -28,22l-39 27c1,-151 -9,-123 80,-197 28,-23 39,-42 70,-66l141 -129c129,-118 67,-31 62,-161 -2,-43 14,-76 24,-112 -69,-56 -132,-118 -210,-177 -78,-59 -153,-106 -240,-158 -112,-67 -415,-204 -559,-229l-35 41 251 573 3 -470c72,19 296,125 345,164l1 1286c441,-1 883,0 1324,0 455,1 801,32 1197,-135 616,-259 1061,-852 1132,-1527 91,-871 -370,-1496 -838,-1805 -296,-194 -604,-294 -1034,-294 -877,1 -1775,6 -2650,0 -227,-2 -317,134 -317,346 1,223 0,446 0,669l0 3319c1,259 -31,386 112,560 199,240 727,185 727,-332 0,-443 0,-886 0,-1329 0,-52 3,-109 1,-161 -2,-49 -24,-82 -42,-125l-305 -694z"/>
 </g>
</svg>
